# File created by Blade
# Date/Time:  Tue Apr 07 20:53:18 2015
#---------------------------------------------------------
:version 1.10
:name HOM
:units
  mass 1.0
  length 1.000000
  angle deg
:documentation
     Acclaim Skeleton File
:root
   axis xyz
   order TX TY TZ RX RY RZ
   position 0.000000 0.000000 0.000000
   orientation 0 0 0
:bonedata
   begin
      id 1
      name Spine_dum
      direction 0.000000 1.000000 0.000000
      length 4.885285
      axis 0.0 0.0 0.0 xyz
   end
   begin
      id 2
      name LeftUpLeg_dum
      direction 1.000000 0.000000 0.000000
      length 2.672193
      axis 0.0 0.0 0.0 xyz
   end
   begin
      id 3
      name RightUpLeg_dum
      direction -1.000000 0.000000 0.000000
      length 2.672193
      axis 0.0 0.0 0.0 xyz
   end
   begin
      id 4
      name Spine
      direction 0.000000 1.000000 0.000000
      length 0.000000
      axis 0.0 0.0 0.0 xyz
      dof rx ry rz
   end
   begin
      id 5
      name Spine_dum1
      direction 0.000000 1.000000 0.000000
      length 16.494159
      axis 0.0 0.0 0.0 xyz
   end
   begin
      id 6
      name Spine_dum2
      direction 0.000000 1.000000 0.000000
      length 10.663448
      axis 0.0 0.0 0.0 xyz
   end
   begin
      id 7
      name Spine_dum3
      direction 0.000000 1.000000 0.000000
      length 10.663448
      axis 0.0 0.0 0.0 xyz
   end
   begin
      id 8
      name Head
      direction 0.000000 1.000000 0.000000
      length 4.527550
      axis 0.0 0.0 0.0 xyz
      dof rx ry rz
   end
   begin
      id 9
      name LeftShoulder
      direction 1.000000 0.000000 0.000000
      length 7.531907
      axis 0.0 0.0 -90.0 xyz
      dof rx ry rz
   end
   begin
      id 10
      name LeftArm
      direction 1.000000 0.000000 0.000000
      length 10.229199
      axis 0.0 0.0 -90.0 xyz
      dof rx ry rz
   end
   begin
      id 11
      name LeftForeArm
      direction 1.000000 0.000000 0.000000
      length 8.673495
      axis 0.0 0.0 -90.0 xyz
      dof ry rz rx
   end
   begin
      id 12
      name LeftHand
      direction 0.000000 0.000000 0.000000
      length 0.000000
      axis 0.0 0.0 -90.0 xyz
      dof rx ry rz
   end
   begin
      id 13
      name LeftHand_dum1
      direction 0.000000 0.000000 0.000000
      length 0.000000
      axis 0.0 0.0 -90.0 xyz
   end
   begin
      id 14
      name LeftHand_dum2
      direction 1.000000 0.000000 0.000000
      length 3.937000
      axis 0.0 0.0 -90.0 xyz
   end
   begin
      id 15
      name LeftHandThumb1
      direction 0.000000 0.000000 1.000000
      length 3.937000
      axis 0.0 0.0 -90.0 xyz
      dof rx rz ry
   end
   begin
      id 16
      name RightShoulder
      direction -1.000000 0.000000 0.000000
      length 7.531907
      axis 0.0 0.0 90.0 xyz
      dof rx ry rz
   end
   begin
      id 17
      name RightArm
      direction -1.000000 0.000000 0.000000
      length 10.229199
      axis 0.0 0.0 90.0 xyz
      dof rx ry rz
   end
   begin
      id 18
      name RightForeArm
      direction -1.000000 0.000000 0.000000
      length 8.673495
      axis 0.0 0.0 90.0 xyz
      dof ry rz rx
   end
   begin
      id 19
      name RightHand
      direction 0.000000 0.000000 0.000000
      length 0.000000
      axis 0.0 0.0 90.0 xyz
      dof rx ry rz
   end
   begin
      id 20
      name RightHand_dum1
      direction 0.000000 0.000000 0.000000
      length 0.000000
      axis 0.0 0.0 90.0 xyz
   end
   begin
      id 21
      name RightHand_dum2
      direction -1.000000 0.000000 0.000000
      length 3.937000
      axis 0.0 0.0 90.0 xyz
   end
   begin
      id 22
      name RightHandThumb1
      direction 0.000000 0.000000 1.000000
      length 3.937000
      axis 0.0 0.0 90.0 xyz
      dof rx rz ry
   end
   begin
      id 23
      name LeftUpLeg
      direction 0.000000 -1.000000 0.000000
      length 16.263388
      axis 0.0 0.0 0.0 xyz
      dof rx ry rz
   end
   begin
      id 24
      name LeftLeg
      direction 0.000000 -1.000000 0.000000
      length 14.328163
      axis 0.0 0.0 0.0 xyz
      dof rx ry rz
   end
   begin
      id 25
      name LeftFoot
      direction 0.000000 -0.258819 0.965926
      length 5.031290
      axis 15.0 0.0 0.0 xyz
      dof rx ry rz
   end
   begin
      id 26
      name LeftToeBase
      direction 0.000000 0.000000 1.000000
      length 2.952750
      axis 0.0 0.0 0.0 xyz
      dof rx ry rz
   end
   begin
      id 27
      name RightUpLeg
      direction 0.000000 -1.000000 0.000000
      length 16.263388
      axis 0.0 0.0 0.0 xyz
      dof rx ry rz
   end
   begin
      id 28
      name RightLeg
      direction 0.000000 -1.000000 0.000000
      length 14.328163
      axis 0.0 0.0 0.0 xyz
      dof rx ry rz
   end
   begin
      id 29
      name RightFoot
      direction 0.000000 -0.258819 0.965926
      length 5.031290
      axis 15.0 0.0 0.0 xyz
      dof rx ry rz
   end
   begin
      id 30
      name RightToeBase
      direction 0.000000 0.000000 1.000000
      length 2.952750
      axis 0.0 0.0 0.0 xyz
      dof rx ry rz
   end
:hierarchy
   begin
      root Spine_dum LeftUpLeg_dum RightUpLeg_dum
      Spine_dum Spine
      LeftUpLeg_dum LeftUpLeg
      RightUpLeg_dum RightUpLeg
      Spine Spine_dum1 Spine_dum2 Spine_dum3
      Spine_dum1 Head
      Spine_dum2 LeftShoulder
      Spine_dum3 RightShoulder
      LeftShoulder LeftArm
      LeftArm LeftForeArm
      LeftForeArm LeftHand
      LeftHand LeftHand_dum1 LeftHand_dum2
      LeftHand_dum1 LeftHandThumb1
      RightShoulder RightArm
      RightArm RightForeArm
      RightForeArm RightHand
      RightHand RightHand_dum1 RightHand_dum2
      RightHand_dum1 RightHandThumb1
      LeftUpLeg LeftLeg
      LeftLeg LeftFoot
      LeftFoot LeftToeBase
      RightUpLeg RightLeg
      RightLeg RightFoot
      RightFoot RightToeBase
   end

# File created by Blade
# Date/Time:  Tue Apr 07 20:53:11 2015
# Frame Rate: 120.000 fps
#------------------------------------------------------
:FULLY-SPECIFIED
:DEGREES
78
root -4.505222 33.084591 -1.076590 10.160656 -27.983417 -3.549340
Spine -4.165457 -9.909119 1.577166
Head 25.921389 -26.201308 3.495647
LeftShoulder -21.678168 47.528140 7.777395
LeftArm 47.831367 -10.373693 -90.250038
LeftForeArm 4.027986 -0.000000 2.341425
LeftHand 5.991850 -0.000000 8.286055
LeftHandThumb1 -26.253704 0.000000 33.147579
RightShoulder -8.261517 -6.797151 -16.013336
RightArm 16.903917 -9.835827 87.698834
RightForeArm 4.128962 -0.000000 4.576826
RightHand 5.621132 -0.000000 11.165949
RightHandThumb1 -24.326973 -0.000000 -32.862282
LeftUpLeg -2.924074 12.531075 2.677589
LeftLeg 3.090937 -0.000000 -0.000000
LeftFoot -11.368838 20.336344 -21.435878
LeftToeBase -10.582322 -0.000000 0.000000
RightUpLeg -8.941316 1.273048 6.972746
RightLeg 6.199520 -0.000000 -0.000000
RightFoot -6.593448 -17.762448 3.172909
RightToeBase -5.852575 -0.000000 0.000000
79
root -4.579857 33.086332 -1.075461 10.217120 -28.822693 -3.617601
Spine -4.108422 -9.982145 1.674371
Head 26.126382 -26.006830 3.390427
LeftShoulder -21.602576 47.471937 7.614424
LeftArm 47.893432 -9.131273 -90.360862
LeftForeArm 3.653107 -0.000000 2.209373
LeftHand 5.963603 0.000000 7.876736
LeftHandThumb1 -26.253704 0.000000 33.147579
RightShoulder -8.279318 -7.045598 -15.884968
RightArm 16.696233 -10.199148 88.571206
RightForeArm 4.744244 -0.000000 4.514025
RightHand 5.372418 -0.000000 12.136872
RightHandThumb1 -24.326973 -0.000000 -32.862282
LeftUpLeg -3.399010 12.682443 2.758579
LeftLeg 4.467554 -0.000000 -0.000000
LeftFoot -12.113869 20.590993 -21.812738
LeftToeBase -10.752267 -0.000000 0.000000
RightUpLeg -8.847467 1.857798 6.995264
RightLeg 6.146250 -0.000000 -0.000000
RightFoot -6.453454 -17.340634 3.358991
RightToeBase -6.005698 -0.000000 0.000000
80
root -4.659860 33.082520 -1.063651 10.151981 -29.619027 -3.636828
Spine -3.959376 -10.108378 1.697958
Head 26.294438 -25.795392 3.325080
LeftShoulder -21.531246 47.396502 7.512784
LeftArm 47.935846 -7.849682 -90.375922
LeftForeArm 3.296568 -0.000000 2.091781
LeftHand 6.008461 -0.000000 7.417306
LeftHandThumb1 -26.253704 0.000000 33.147579
RightShoulder -8.291380 -7.279719 -15.766781
RightArm 16.444770 -10.491961 89.396804
RightForeArm 5.291668 0.000000 4.432436
RightHand 5.214087 -0.000000 13.156263
RightHandThumb1 -24.326973 -0.000000 -32.862282
LeftUpLeg -3.827489 12.798084 2.825539
LeftLeg 6.000882 -0.000000 -0.000000
LeftFoot -12.922160 20.772775 -22.264584
LeftToeBase -10.910567 -0.000000 0.000000
RightUpLeg -8.748923 1.960360 7.031143
RightLeg 6.348758 -0.000000 -0.000000
RightFoot -6.520883 -16.543570 3.468434
RightToeBase -6.033005 -0.000000 0.000000
81
root -4.738088 33.077310 -1.052504 10.119449 -30.403797 -3.660068
Spine -3.866746 -10.241975 1.767266
Head 26.513126 -25.551021 3.162840
LeftShoulder -21.411713 47.413476 7.380734
LeftArm 48.060559 -6.741147 -90.450915
LeftForeArm 3.084985 0.000000 2.037112
LeftHand 6.020956 -0.000000 6.839752
LeftHandThumb1 -26.253704 0.000000 33.147579
RightShoulder -8.306750 -7.542790 -15.728412
RightArm 16.219985 -10.958633 90.154029
RightForeArm 6.065920 0.000000 4.316102
RightHand 5.070149 -0.000000 14.012433
RightHandThumb1 -24.326973 -0.000000 -32.862282
LeftUpLeg -4.333059 12.696440 2.892499
LeftLeg 7.639585 -0.000000 -0.000000
LeftFoot -13.834172 21.095689 -22.903122
LeftToeBase -11.106147 -0.000000 0.000000
RightUpLeg -8.737653 1.711403 7.104256
RightLeg 6.658452 -0.000000 -0.000000
RightFoot -6.559366 -15.461519 3.387676
RightToeBase -6.300621 -0.000000 0.000000
82
root -4.819839 33.071992 -1.043022 10.096239 -31.165441 -3.718533
Spine -3.754371 -10.424228 1.857626
Head 26.689862 -25.270779 3.039160
LeftShoulder -21.356487 47.360311 7.258760
LeftArm 48.180910 -5.434065 -90.274116
LeftForeArm 2.273733 0.000000 1.943071
LeftHand 5.869171 -0.000000 6.335276
LeftHandThumb1 -26.253704 0.000000 33.147579
RightShoulder -8.322869 -7.782179 -15.701154
RightArm 15.929593 -11.381045 90.873331
RightForeArm 6.892889 -0.000000 4.295291
RightHand 4.783931 -0.000000 14.682776
RightHandThumb1 -24.326973 -0.000000 -32.862282
LeftUpLeg -4.900973 12.496313 3.024789
LeftLeg 9.441171 -0.000000 -0.000000
LeftFoot -14.680673 21.347824 -23.616739
LeftToeBase -11.584664 -0.000000 0.000000
RightUpLeg -8.791628 1.567850 7.192796
RightLeg 7.142170 -0.000000 -0.000000
RightFoot -6.704648 -14.414347 3.427654
RightToeBase -6.330599 -0.000000 0.000000
83
root -4.905420 33.065815 -1.039491 10.121939 -31.910569 -3.855046
Spine -3.650983 -10.603008 2.014607
Head 26.893313 -24.967701 2.894472
LeftShoulder -21.303822 47.302039 7.135553
LeftArm 48.337000 -4.078978 -89.933505
LeftForeArm 1.623803 -0.000000 1.881875
LeftHand 5.607206 -0.000000 5.801171
LeftHandThumb1 -26.253704 0.000000 33.147579
RightShoulder -8.360845 -7.997891 -15.673609
RightArm 15.677955 -11.896415 91.522936
RightForeArm 7.429435 -0.000000 4.159382
RightHand 4.167869 -0.000000 16.588909
RightHandThumb1 -24.326973 -0.000000 -32.862282
LeftUpLeg -5.552558 12.170606 3.231402
LeftLeg 11.367193 -0.000000 -0.000000
LeftFoot -15.526431 21.704059 -24.497371
LeftToeBase -12.136102 -0.000000 0.000000
RightUpLeg -8.586557 2.140332 7.286550
RightLeg 7.059636 -0.000000 -0.000000
RightFoot -6.613012 -14.058017 3.675689
RightToeBase -6.727535 -0.000000 0.000000
84
root -4.982960 33.056274 -1.038994 10.187948 -32.667977 -3.956856
Spine -3.593204 -10.806359 2.164076
Head 27.048661 -24.628444 2.744712
LeftShoulder -21.232825 47.166285 7.065676
LeftArm 48.393764 -2.637417 -89.375289
LeftForeArm 0.605330 0.000000 1.860970
LeftHand 5.718031 -0.000000 4.984701
LeftHandThumb1 -26.253704 0.000000 33.147579
RightShoulder -8.330929 -8.173726 -15.717092
RightArm 15.372937 -12.122660 92.207289
RightForeArm 8.097074 -0.000000 3.984748
RightHand 3.865786 -0.000000 17.330872
RightHandThumb1 -24.326973 -0.000000 -32.862282
LeftUpLeg -6.334619 11.832240 3.387160
LeftLeg 13.403821 -0.000000 -0.000000
LeftFoot -16.228124 22.102698 -25.233913
LeftToeBase -12.962447 -0.000000 0.000000
RightUpLeg -8.491874 2.355702 7.386531
RightLeg 7.034031 -0.000000 -0.000000
RightFoot -6.484706 -13.474031 3.543754
RightToeBase -7.326312 -0.000000 0.000000
85
root -5.058953 33.045282 -1.033671 10.176536 -33.491196 -4.038530
Spine -3.464812 -10.956870 2.262097
Head 27.215834 -24.263421 2.624038
LeftShoulder -21.151385 47.039305 7.011743
LeftArm 48.551244 -1.624878 -89.212222
LeftForeArm 0.344846 -0.000000 1.794727
LeftHand 5.563747 0.000000 4.383876
LeftHandThumb1 -26.253704 0.000000 33.147579
RightShoulder -8.278020 -8.323050 -15.736394
RightArm 15.150141 -12.379846 92.768820
RightForeArm 8.771846 0.000000 3.649652
RightHand 3.489827 0.000000 18.249692
RightHandThumb1 -24.326973 -0.000000 -32.862282
LeftUpLeg -7.004610 11.636889 3.571001
LeftLeg 15.435129 -0.000000 -0.000000
LeftFoot -16.706709 22.097685 -26.067654
LeftToeBase -14.034687 -0.000000 0.000000
RightUpLeg -8.340632 2.843547 7.423824
RightLeg 7.062293 -0.000000 -0.000000
RightFoot -6.475623 -13.025203 3.564898
RightToeBase -7.491438 -0.000000 0.000000
86
root -5.142954 33.029940 -1.034468 10.180239 -34.322133 -4.213711
Spine -3.278389 -11.089227 2.410336
Head 27.329098 -23.873063 2.522963
LeftShoulder -21.025338 46.925549 7.029229
LeftArm 48.784889 -1.065210 -89.482672
LeftForeArm 0.874417 -0.000000 1.641280
LeftHand 5.553805 -0.000000 3.737797
LeftHandThumb1 -26.253704 0.000000 33.147579
RightShoulder -8.241265 -8.494008 -15.754372
RightArm 14.964527 -12.531876 93.288779
RightForeArm 9.368382 -0.000000 3.261450
RightHand 3.386007 -0.000000 18.958218
RightHandThumb1 -24.326973 -0.000000 -32.862282
LeftUpLeg -7.805322 11.705290 3.858750
LeftLeg 17.832991 -0.000000 -0.000000
LeftFoot -17.057443 21.830378 -26.656663
LeftToeBase -15.167416 -0.000000 0.000000
RightUpLeg -8.152562 3.436979 7.554535
RightLeg 7.109884 -0.000000 -0.000000
RightFoot -6.504616 -12.790543 3.380439
RightToeBase -7.400092 -0.000000 0.000000
87
root -5.233363 33.011833 -1.032453 10.188771 -35.236556 -4.392879
Spine -3.117606 -11.119762 2.516360
Head 27.515082 -23.525752 2.425514
LeftShoulder -20.858021 46.865176 7.080587
LeftArm 48.979447 -0.183447 -89.241754
LeftForeArm 0.673625 -0.000000 1.654322
LeftHand 5.448864 -0.000000 3.409845
LeftHandThumb1 -26.253704 0.000000 33.147579
RightShoulder -8.218429 -8.634140 -15.745084
RightArm 14.750788 -12.613570 93.737547
RightForeArm 9.692142 -0.000000 2.848793
RightHand 3.092035 -0.000000 20.002382
RightHandThumb1 -24.326973 -0.000000 -32.862282
LeftUpLeg -8.642916 11.826017 4.135156
LeftLeg 20.340298 -0.000000 -0.000000
LeftFoot -17.305180 21.727384 -26.999159
LeftToeBase -15.854412 -0.000000 0.000000
RightUpLeg -7.994528 3.956906 7.701205
RightLeg 7.267033 -0.000000 -0.000000
RightFoot -6.559241 -12.361666 3.318278
RightToeBase -7.490539 -0.000000 0.000000
88
root -5.339978 32.989475 -1.031560 10.172828 -36.161283 -4.673213
Spine -2.868353 -11.176881 2.658003
Head 27.659255 -23.078702 2.377896
LeftShoulder -20.767159 46.849790 7.108689
LeftArm 49.133190 1.046931 -88.498929
LeftForeArm -0.187387 -0.000000 1.863201
LeftHand 5.246239 0.000000 3.234354
LeftHandThumb1 -26.253704 0.000000 33.147579
RightShoulder -8.180134 -8.796181 -15.729687
RightArm 14.619419 -12.757673 94.091865
RightForeArm 9.868354 -0.000000 2.390374
RightHand 2.816439 0.000000 20.901330
RightHandThumb1 -24.326973 -0.000000 -32.862282
LeftUpLeg -9.457572 12.143720 4.577242
LeftLeg 23.062575 -0.000000 -0.000000
LeftFoot -17.343610 21.255548 -27.287228
LeftToeBase -16.733384 -0.000000 0.000000
RightUpLeg -7.720894 4.494584 7.961574
RightLeg 7.416549 -0.000000 -0.000000
RightFoot -6.596885 -11.982080 3.175640
RightToeBase -7.679145 -0.000000 0.000000
89
root -5.433534 32.970040 -1.040311 10.235359 -37.158865 -4.884681
Spine -2.704926 -11.166344 2.730750
Head 27.783383 -22.664660 2.352915
LeftShoulder -20.621065 46.739124 7.165708
LeftArm 49.314949 1.820430 -88.056907
LeftForeArm -0.300692 0.000000 1.845880
LeftHand 5.508577 -0.000000 3.378175
LeftHandThumb1 -26.253704 0.000000 33.147579
RightShoulder -8.125013 -8.909766 -15.663274
RightArm 14.494909 -12.752601 94.369771
RightForeArm 9.957169 0.000000 1.956294
RightHand 2.245808 -0.000000 21.942131
RightHandThumb1 -24.326973 -0.000000 -32.862282
LeftUpLeg -10.249311 12.000245 4.928019
LeftLeg 25.465948 -0.000000 -0.000000
LeftFoot -17.214520 21.230972 -27.351612
LeftToeBase -17.882236 -0.000000 0.000000
RightUpLeg -7.428713 5.591210 8.089783
RightLeg 7.244386 -0.000000 -0.000000
RightFoot -6.548286 -12.009285 3.220566
RightToeBase -7.750350 -0.000000 0.000000
